<?xml version="1.0" encoding="iso-8859-1"?>
<!-- Uploaded to: SVG Repo, www.svgrepo.com, Generator: SVG Repo Mixer Tools -->
<svg version="1.1" id="Layer_1" xmlns="http://www.w3.org/2000/svg" xmlns:xlink="http://www.w3.org/1999/xlink" 
	 viewBox="0 0 512.001 512.001" xml:space="preserve">
<g>
	<polygon style="fill:#222020;" points="169.408,373.905 160.704,360.488 256.001,298.729 351.288,360.488 342.584,373.905 
		256.001,317.792 	"/>
	<rect x="247.997" y="248.377" style="fill:#222020;" width="16" height="63.318"/>
</g>
<circle style="fill:#E21B1B;" cx="255.918" cy="107.998" r="107.998"/>
<polygon style="fill:#FFFFFF;" points="293.04,58.944 238.096,126.713 215.008,103.92 199.776,120.697 239.881,160.272 
	309.952,73.856 "/>
<circle style="fill:#BBBBBB;" cx="82.757" cy="371.722" r="41.379"/>
<g>
	<path style="fill:#333333;" d="M80.92,512.001l-39.536-86.44c0,0-41.384,0.92-41.384,38.623V512h80.92V512.001z"/>
	<path style="fill:#333333;" d="M84.6,512.001l39.544-86.44c0,0,41.384,0.92,41.384,38.623V512H84.6V512.001z"/>
</g>
<polygon style="fill:#E21B1B;" points="53.84,425.561 82.76,489.928 111.68,425.561 "/>
<circle style="fill:#BBBBBB;" cx="429.238" cy="371.722" r="41.379"/>
<g>
	<path style="fill:#333333;" d="M427.4,512.001l-39.544-86.44c0,0-41.384,0.92-41.384,38.623V512H427.4V512.001z"/>
	<path style="fill:#333333;" d="M431.08,512.001l39.544-86.44c0,0,41.376,0.92,41.376,38.623V512H431.08V512.001z"/>
</g>
<polygon style="fill:#E21B1B;" points="400.32,425.561 429.241,489.928 458.16,425.561 "/>
</svg>